<svg width="373" height="51" viewBox="0 0 373 51" fill="none" xmlns="http://www.w3.org/2000/svg">
<rect width="51.5614" height="50.4548" rx="25.2274" fill="white"/>
<path fill-rule="evenodd" clip-rule="evenodd" d="M41.4592 14.2472L39.8475 14.938C22.5791 -3.02123 -1.36649 19.5428 12.4483 36.1206C11.7175 32.879 11.6631 31.0646 11.9878 27.8317H40.0777V30.1342C48.1363 30.1342 45.8339 39.8045 38.2358 39.8045C30.4074 46.0212 17.8499 45.4583 10.8365 37.502C-5.28065 14.2472 26.9537 -4.86314 41.4592 14.2472ZM38.466 29.4435H13.3693C13.3693 32.6669 13.8297 36.7394 14.981 37.9626C18.6649 41.8767 27.6445 44.8699 37.0846 38.423C45.3734 37.9626 45.3734 30.8249 38.466 31.0552V29.4435Z" fill="#221F20"/>
<path fill-rule="evenodd" clip-rule="evenodd" d="M38.4669 32.2063L37.5459 37.5021C37.5459 37.5021 39.214 37.5189 40.0786 37.2719C43.302 36.3508 44.4533 31.5156 38.4669 32.2063ZM38.9274 36.3508L39.6181 33.1274C39.6181 33.1274 41.2298 33.1274 41.4601 34.2785C41.4601 35.8903 38.9274 36.3508 38.9274 36.3508Z" fill="#221F20"/>
<path d="M26.4925 29.4435H25.8018L25.8018 41.7996H26.4925V29.4435Z" fill="#221F20"/>
<path d="M23.8448 33.4969H24.6019C24.5873 33.8265 24.5205 34.107 24.4017 34.3385C24.2828 34.5679 24.1118 34.7431 23.8886 34.864C23.6675 34.985 23.3975 35.0455 23.0784 35.0455C22.8364 35.0455 22.6196 35.0017 22.4277 34.9141C22.2379 34.8265 22.0763 34.7003 21.9428 34.5356C21.8093 34.3687 21.7071 34.1654 21.6362 33.9255C21.5674 33.6857 21.533 33.4135 21.533 33.109V32.3019C21.533 31.9974 21.5684 31.7253 21.6393 31.4854C21.7123 31.2456 21.8166 31.0422 21.9522 30.8754C22.0877 30.7086 22.2525 30.5824 22.4464 30.4969C22.6425 30.4093 22.8636 30.3655 23.1097 30.3655C23.4246 30.3655 23.6894 30.426 23.9043 30.5469C24.1191 30.6679 24.2849 30.8452 24.4017 31.0787C24.5185 31.3123 24.5862 31.597 24.605 31.9328H23.8479C23.8375 31.7055 23.8062 31.524 23.7541 31.3884C23.704 31.2508 23.6269 31.1517 23.5226 31.0913C23.4204 31.0308 23.2828 31.0005 23.1097 31.0005C22.9658 31.0005 22.8417 31.0276 22.7374 31.0819C22.6352 31.1361 22.5507 31.2174 22.484 31.3259C22.4193 31.4322 22.3703 31.5668 22.337 31.7294C22.3057 31.89 22.29 32.0788 22.29 32.2957V33.109C22.29 33.3176 22.3036 33.5022 22.3307 33.6628C22.3578 33.8233 22.4016 33.9599 22.4621 34.0726C22.5226 34.1831 22.6029 34.2676 22.703 34.326C22.8031 34.3823 22.9282 34.4104 23.0784 34.4104C23.2577 34.4104 23.4006 34.3823 23.507 34.326C23.6154 34.2696 23.6957 34.1748 23.7478 34.0413C23.8 33.9078 23.8323 33.7264 23.8448 33.4969Z" fill="#221F20"/>
<path d="M31.1608 32.3332V33.109C31.1608 33.4302 31.1232 33.7118 31.0482 33.9537C30.9752 34.1956 30.8688 34.3979 30.7291 34.5606C30.5914 34.7212 30.4246 34.8421 30.2285 34.9235C30.0346 35.0048 29.8177 35.0455 29.5778 35.0455C29.3401 35.0455 29.1232 35.0048 28.9271 34.9235C28.7332 34.8421 28.5653 34.7212 28.4235 34.5606C28.2838 34.3979 28.1753 34.1956 28.0981 33.9537C28.0231 33.7118 27.9855 33.4302 27.9855 33.109V32.3332C27.9855 32.0079 28.0231 31.7232 28.0981 31.4792C28.1732 31.2331 28.2806 31.0276 28.4204 30.8629C28.5622 30.6981 28.7301 30.574 28.924 30.4906C29.1201 30.4072 29.3359 30.3655 29.5716 30.3655C29.8114 30.3655 30.0283 30.4072 30.2223 30.4906C30.4183 30.574 30.5862 30.6981 30.7259 30.8629C30.8657 31.0276 30.9731 31.2331 31.0482 31.4792C31.1232 31.7232 31.1608 32.0079 31.1608 32.3332ZM30.4069 33.109V32.327C30.4069 32.0955 30.3881 31.8973 30.3505 31.7326C30.3151 31.5657 30.2619 31.4302 30.191 31.3259C30.1201 31.2195 30.0325 31.1413 29.9282 31.0913C29.826 31.0391 29.7071 31.013 29.5716 31.013C29.4402 31.013 29.3224 31.0391 29.2181 31.0913C29.1159 31.1413 29.0283 31.2195 28.9553 31.3259C28.8844 31.4302 28.8302 31.5657 28.7926 31.7326C28.7572 31.8973 28.7394 32.0955 28.7394 32.327V33.109C28.7394 33.3364 28.7582 33.5324 28.7958 33.6972C28.8333 33.8598 28.8875 33.9933 28.9584 34.0976C29.0314 34.1998 29.1201 34.2759 29.2243 34.326C29.3286 34.376 29.4465 34.401 29.5778 34.401C29.7113 34.401 29.8302 34.376 29.9345 34.326C30.0388 34.2759 30.1253 34.1998 30.1941 34.0976C30.265 33.9933 30.3182 33.8598 30.3537 33.6972C30.3891 33.5324 30.4069 33.3364 30.4069 33.109Z" fill="#221F20"/>
<path d="M22.7405 40.5088H21.949L21.9553 39.8737H22.7405C22.9845 39.8737 23.1795 39.8289 23.3255 39.7392C23.4715 39.6475 23.5768 39.5077 23.6415 39.32C23.7061 39.1323 23.7385 38.8925 23.7385 38.6005V37.8591C23.7385 37.6338 23.7197 37.442 23.6821 37.2835C23.6467 37.1229 23.5904 36.9925 23.5132 36.8924C23.4381 36.7902 23.3391 36.7152 23.216 36.6672C23.093 36.6171 22.9449 36.5921 22.7718 36.5921H21.9334V35.9539H22.7718C23.0325 35.9539 23.2682 35.9956 23.4788 36.0791C23.6894 36.1625 23.8698 36.2855 24.02 36.4482C24.1722 36.6088 24.289 36.808 24.3704 37.0457C24.4517 37.2835 24.4924 37.5567 24.4924 37.8653V38.6005C24.4924 38.9092 24.4517 39.1824 24.3704 39.4201C24.289 39.6558 24.1722 39.855 24.02 40.0176C23.8678 40.1782 23.6842 40.3002 23.4694 40.3837C23.2546 40.4671 23.0116 40.5088 22.7405 40.5088ZM22.3839 35.9539V40.5088H21.6237V35.9539H22.3839Z" fill="#221F20"/>
<path d="M31.068 39.8737V40.5088H29.0909V39.8737H31.068ZM29.2911 35.9539V40.5088H28.5309V35.9539H29.2911ZM30.8021 37.8497V38.4754H29.0909V37.8497H30.8021ZM31.0492 35.9539V36.5921H29.0909V35.9539H31.0492Z" fill="#221F20"/>
<path fill-rule="evenodd" clip-rule="evenodd" d="M27.5703 15.1464C25.2386 15.2268 22.4245 17.5585 22.2637 19.6489C22.2637 20.855 24.0325 23.6691 24.0325 24.9556C24.0325 26.0812 23.2285 27.046 23.2285 27.046C24.87 27.141 27.1683 26.3224 27.3291 24.6339C27.4095 22.3827 25.6486 20.6138 25.721 19.2469C25.6406 16.4328 27.6507 16.674 27.5703 15.1464ZM23.5501 19.6489C23.6627 18.5233 24.1725 17.961 25.2386 17.076C24.8287 17.8547 24.6327 18.4081 24.6758 19.6489C24.7427 21.5786 26.3642 22.7847 26.3642 24.3123C26.2264 25.2772 25.1582 25.7596 25.1582 25.7596C26.0426 23.5887 23.4376 20.7746 23.5501 19.6489Z" fill="#221F20"/>
<path fill-rule="evenodd" clip-rule="evenodd" d="M30.2262 20.7745C29.0597 20.8148 27.6517 21.9813 27.5713 23.0272C27.5713 23.6306 28.4563 25.0386 28.4563 25.6822C28.4563 26.2454 28.054 26.7281 28.054 26.7281C28.8752 26.7756 30.0251 26.366 30.1056 25.5213C30.1458 24.3949 29.2648 23.5099 29.301 22.8261C29.2608 21.4182 30.2665 21.5388 30.2262 20.7745ZM28.2149 23.0272C28.2712 22.4641 28.5263 22.1827 29.0597 21.74C28.8546 22.1296 28.7565 22.4064 28.7781 23.0272C28.8116 23.9927 29.6228 24.5961 29.6228 25.3604C29.5539 25.8431 29.0194 26.0845 29.0194 26.0845C29.4619 24.9983 28.1586 23.5904 28.2149 23.0272Z" fill="#221F20"/>
<path d="M75.2673 18.9563C74.5414 18.9563 73.8932 19.1119 73.3228 19.423C72.7525 19.7237 72.265 20.1645 71.8606 20.7452C71.4561 21.326 71.145 22.0364 70.9272 22.8764C70.7198 23.706 70.6161 24.6498 70.6161 25.7076C70.6161 27.1387 70.7976 28.3417 71.1606 29.3165C71.5236 30.2914 72.0732 31.0277 72.8095 31.5255C73.5562 32.0233 74.4895 32.2722 75.6096 32.2722C76.6259 32.2722 77.6007 32.1322 78.5341 31.8522C79.4778 31.5721 80.4267 31.2351 81.3808 30.841V36.0367C80.3749 36.4826 79.343 36.8041 78.2852 37.0012C77.2377 37.1982 76.1229 37.2967 74.9407 37.2967C72.4725 37.2967 70.4502 36.8093 68.8739 35.8345C67.3079 34.8493 66.1516 33.4855 65.4049 31.7433C64.6686 30.001 64.3004 27.9787 64.3004 25.6765C64.3004 23.9549 64.539 22.3786 65.016 20.9475C65.5034 19.5163 66.2138 18.277 67.1472 17.2296C68.0805 16.1718 69.2316 15.3577 70.6006 14.7873C71.9799 14.2066 73.5562 13.9162 75.3296 13.9162C76.4288 13.9162 77.5852 14.0458 78.7985 14.3051C80.0223 14.554 81.2149 14.9584 82.3764 15.5185L80.4941 20.3563C79.6645 19.9623 78.8244 19.6304 77.9741 19.3608C77.1237 19.0911 76.2214 18.9563 75.2673 18.9563ZM93.5909 30.8721V26.0187H102.38V30.8721H93.5909ZM125.199 18.9563C124.473 18.9563 123.825 19.1119 123.255 19.423C122.684 19.7237 122.197 20.1645 121.793 20.7452C121.388 21.326 121.077 22.0364 120.859 22.8764C120.652 23.706 120.548 24.6498 120.548 25.7076C120.548 27.1387 120.73 28.3417 121.093 29.3165C121.455 30.2914 122.005 31.0277 122.741 31.5255C123.488 32.0233 124.421 32.2722 125.541 32.2722C126.558 32.2722 127.533 32.1322 128.466 31.8522C129.41 31.5721 130.359 31.2351 131.313 30.841V36.0367C130.307 36.4826 129.275 36.8041 128.217 37.0012C127.17 37.1982 126.055 37.2967 124.873 37.2967C122.404 37.2967 120.382 36.8093 118.806 35.8345C117.24 34.8493 116.084 33.4855 115.337 31.7433C114.601 30.001 114.232 27.9787 114.232 25.6765C114.232 23.9549 114.471 22.3786 114.948 20.9475C115.435 19.5163 116.146 18.277 117.079 17.2296C118.012 16.1718 119.164 15.3577 120.532 14.7873C121.912 14.2066 123.488 13.9162 125.261 13.9162C126.361 13.9162 127.517 14.0458 128.73 14.3051C129.954 14.554 131.147 14.9584 132.308 15.5185L130.426 20.3563C129.596 19.9623 128.756 19.6304 127.906 19.3608C127.056 19.0911 126.153 18.9563 125.199 18.9563ZM157.679 25.5831C157.679 27.3358 157.467 28.9328 157.042 30.3743C156.627 31.8055 155.973 33.0396 155.082 34.0766C154.19 35.1137 153.044 35.9122 151.644 36.4723C150.244 37.0219 148.569 37.2967 146.619 37.2967C144.711 37.2967 143.057 37.0219 141.657 36.4723C140.267 35.9122 139.121 35.1189 138.219 34.0922C137.317 33.0551 136.648 31.8159 136.212 30.3743C135.777 28.9328 135.559 27.3254 135.559 25.552C135.559 23.1875 135.948 21.1341 136.726 19.3919C137.514 17.6392 138.727 16.2859 140.366 15.3318C142.004 14.3673 144.099 13.8851 146.65 13.8851C149.243 13.8851 151.348 14.3673 152.966 15.3318C154.594 16.2963 155.787 17.6548 156.544 19.4074C157.301 21.1601 157.679 23.2186 157.679 25.5831ZM142.03 25.5831C142.03 26.952 142.186 28.1291 142.497 29.1143C142.808 30.0995 143.301 30.8566 143.975 31.3855C144.649 31.9144 145.53 32.1788 146.619 32.1788C147.75 32.1788 148.647 31.9144 149.31 31.3855C149.984 30.8566 150.467 30.0995 150.757 29.1143C151.058 28.1291 151.208 26.952 151.208 25.5831C151.208 23.5297 150.866 21.9067 150.181 20.7141C149.497 19.5215 148.32 18.9252 146.65 18.9252C145.541 18.9252 144.644 19.1948 143.959 19.7341C143.285 20.2734 142.792 21.0408 142.481 22.0364C142.18 23.032 142.03 24.2142 142.03 25.5831ZM181.728 25.132C181.728 27.7765 181.236 29.9751 180.25 31.7277C179.265 33.4803 177.875 34.7974 176.081 35.6789C174.298 36.55 172.198 36.9856 169.781 36.9856H162.423V14.2429H170.295C172.742 14.2429 174.816 14.6629 176.517 15.5029C178.218 16.3429 179.509 17.5718 180.39 19.1897C181.282 20.8075 181.728 22.7882 181.728 25.132ZM175.35 25.3498C175.35 23.9705 175.164 22.8297 174.79 21.9275C174.427 21.0149 173.878 20.3356 173.141 19.8897C172.405 19.4334 171.477 19.2052 170.357 19.2052H168.568V31.9455H169.937C171.803 31.9455 173.172 31.4062 174.044 30.3277C174.915 29.2388 175.35 27.5795 175.35 25.3498ZM199.959 36.9856H186.457V14.2429H199.959V19.1741H192.601V22.752H199.415V27.6832H192.601V31.9766H199.959V36.9856ZM223.618 18.9563C222.892 18.9563 222.244 19.1119 221.674 19.423C221.103 19.7237 220.616 20.1645 220.212 20.7452C219.807 21.326 219.496 22.0364 219.278 22.8764C219.071 23.706 218.967 24.6498 218.967 25.7076C218.967 27.1387 219.149 28.3417 219.512 29.3165C219.875 30.2914 220.424 31.0277 221.16 31.5255C221.907 32.0233 222.841 32.2722 223.961 32.2722C224.977 32.2722 225.952 32.1322 226.885 31.8522C227.829 31.5721 228.778 31.2351 229.732 30.841V36.0367C228.726 36.4826 227.694 36.8041 226.636 37.0012C225.589 37.1982 224.474 37.2967 223.292 37.2967C220.823 37.2967 218.801 36.8093 217.225 35.8345C215.659 34.8493 214.503 33.4855 213.756 31.7433C213.02 30.001 212.651 27.9787 212.651 25.6765C212.651 23.9549 212.89 22.3786 213.367 20.9475C213.854 19.5163 214.565 18.277 215.498 17.2296C216.431 16.1718 217.583 15.3577 218.952 14.7873C220.331 14.2066 221.907 13.9162 223.681 13.9162C224.78 13.9162 225.936 14.0458 227.149 14.3051C228.373 14.554 229.566 14.9584 230.727 15.5185L228.845 20.3563C228.015 19.9623 227.175 19.6304 226.325 19.3608C225.475 19.0911 224.572 18.9563 223.618 18.9563ZM256.098 25.5831C256.098 27.3358 255.886 28.9328 255.461 30.3743C255.046 31.8055 254.392 33.0396 253.501 34.0766C252.609 35.1137 251.463 35.9122 250.063 36.4723C248.663 37.0219 246.988 37.2967 245.038 37.2967C243.13 37.2967 241.476 37.0219 240.076 36.4723C238.686 35.9122 237.54 35.1189 236.638 34.0922C235.736 33.0551 235.067 31.8159 234.631 30.3743C234.196 28.9328 233.978 27.3254 233.978 25.552C233.978 23.1875 234.367 21.1341 235.145 19.3919C235.933 17.6392 237.146 16.2859 238.785 15.3318C240.423 14.3673 242.518 13.8851 245.069 13.8851C247.662 13.8851 249.767 14.3673 251.385 15.3318C253.013 16.2963 254.206 17.6548 254.963 19.4074C255.72 21.1601 256.098 23.2186 256.098 25.5831ZM240.449 25.5831C240.449 26.952 240.605 28.1291 240.916 29.1143C241.227 30.0995 241.72 30.8566 242.394 31.3855C243.068 31.9144 243.949 32.1788 245.038 32.1788C246.169 32.1788 247.066 31.9144 247.729 31.3855C248.403 30.8566 248.886 30.0995 249.176 29.1143C249.477 28.1291 249.627 26.952 249.627 25.5831C249.627 23.5297 249.285 21.9067 248.6 20.7141C247.916 19.5215 246.739 18.9252 245.069 18.9252C243.96 18.9252 243.063 19.1948 242.378 19.7341C241.704 20.2734 241.211 21.0408 240.9 22.0364C240.6 23.032 240.449 24.2142 240.449 25.5831ZM266.894 36.9856H260.842V14.2429H274.283V19.1741H266.894V23.5142H273.707V28.4454H266.894V36.9856ZM284.704 36.9856H278.653V14.2429H292.093V19.1741H284.704V23.5142H291.518V28.4454H284.704V36.9856ZM309.967 36.9856H296.464V14.2429H309.967V19.1741H302.609V22.752H309.422V27.6832H302.609V31.9766H309.967V36.9856ZM328.089 36.9856H314.586V14.2429H328.089V19.1741H320.731V22.752H327.544V27.6832H320.731V31.9766H328.089V36.9856Z" fill="#221F20"/>
</svg>
