<svg width="100" height="100" viewBox="0 0 100 100" fill="none" xmlns="http://www.w3.org/2000/svg">
<rect width="100" height="100" rx="50" fill="white"/>
<path fill-rule="evenodd" clip-rule="evenodd" d="M78.4006 30.1457L75.4833 31.396C44.2262 -1.11147 0.883062 39.7311 25.8888 69.738C24.566 63.8704 24.4675 60.5864 25.0552 54.7346H75.9001V58.9022C90.4867 58.9022 86.3191 76.4062 72.566 76.4062C58.3961 87.6587 35.666 86.64 22.9714 72.2384C-6.20183 30.1457 52.1447 -4.44545 78.4006 30.1457ZM72.9827 57.6519H27.5558C27.5558 63.4866 28.3893 70.858 30.4731 73.0721C37.1413 80.157 53.395 85.5749 70.4822 73.9056C85.4856 73.0721 85.4856 60.1525 72.9827 60.5693V57.6519Z" fill="#3D3538"/>
<path fill-rule="evenodd" clip-rule="evenodd" d="M72.983 62.6528L71.3159 72.2386C71.3159 72.2386 74.3354 72.2689 75.9003 71.8218C81.7349 70.1546 83.8187 61.4025 72.983 62.6528ZM73.8165 70.1546L75.0668 64.3201C75.0668 64.3201 77.9841 64.32 78.4009 66.4036C78.4009 69.321 73.8165 70.1546 73.8165 70.1546Z" fill="#3D3538"/>
<path d="M51.3113 57.6519H50.061L50.0611 80.0173H51.3113V57.6519Z" fill="#3D3538"/>
<path d="M46.5161 65.1287H47.8864C47.86 65.7251 47.7392 66.2329 47.524 66.6519C47.3088 67.0671 46.9993 67.3842 46.5953 67.6032C46.1952 67.8221 45.7063 67.9316 45.1288 67.9316C44.6909 67.9316 44.2983 67.8523 43.951 67.6938C43.6074 67.5352 43.3149 67.3068 43.0733 67.0086C42.8317 66.7066 42.6467 66.3386 42.5183 65.9044C42.3938 65.4703 42.3315 64.9777 42.3315 64.4265V62.9656C42.3315 62.4144 42.3957 61.9218 42.524 61.4877C42.6561 61.0535 42.8449 60.6855 43.0903 60.3835C43.3356 60.0815 43.6339 59.8531 43.9849 59.6983C44.3398 59.5398 44.7399 59.4605 45.1854 59.4605C45.7554 59.4605 46.2348 59.57 46.6237 59.7889C47.0125 60.0079 47.3126 60.3287 47.524 60.7515C47.7354 61.1743 47.8581 61.6896 47.8921 62.2974H46.5217C46.5029 61.8859 46.4462 61.5575 46.3519 61.3121C46.2613 61.063 46.1216 60.8837 45.9328 60.7742C45.7479 60.6647 45.4987 60.61 45.1854 60.61C44.9249 60.61 44.7003 60.6591 44.5115 60.7572C44.3266 60.8554 44.1737 61.0026 44.0529 61.1989C43.9359 61.3914 43.8471 61.6349 43.7867 61.9293C43.7301 62.22 43.7018 62.5617 43.7018 62.9543V64.4265C43.7018 64.804 43.7263 65.1381 43.7754 65.4288C43.8245 65.7195 43.9038 65.9667 44.0132 66.1706C44.1227 66.3706 44.2681 66.5235 44.4493 66.6292C44.6305 66.7312 44.857 66.7821 45.1288 66.7821C45.4534 66.7821 45.712 66.7312 45.9045 66.6292C46.1008 66.5273 46.2462 66.3555 46.3405 66.1139C46.4349 65.8723 46.4934 65.5439 46.5161 65.1287Z" fill="#3D3538"/>
<path d="M59.7597 63.0222V64.4265C59.7597 65.0079 59.6917 65.5175 59.5558 65.9554C59.4237 66.3933 59.2312 66.7595 58.9783 67.0539C58.7291 67.3446 58.4271 67.5635 58.0723 67.7108C57.7212 67.858 57.3286 67.9316 56.8945 67.9316C56.4641 67.9316 56.0715 67.858 55.7167 67.7108C55.3656 67.5635 55.0617 67.3446 54.805 67.0539C54.5521 66.7595 54.3558 66.3933 54.2161 65.9554C54.0802 65.5175 54.0122 65.0079 54.0122 64.4265V63.0222C54.0122 62.4333 54.0802 61.918 54.2161 61.4763C54.352 61.0309 54.5464 60.6591 54.7993 60.3608C55.056 60.0626 55.3599 59.838 55.711 59.687C56.0658 59.536 56.4566 59.4605 56.8831 59.4605C57.3173 59.4605 57.7099 59.536 58.0609 59.687C58.4158 59.838 58.7197 60.0626 58.9726 60.3608C59.2255 60.6591 59.4199 61.0309 59.5558 61.4763C59.6917 61.918 59.7597 62.4333 59.7597 63.0222ZM58.395 64.4265V63.0109C58.395 62.5919 58.361 62.2332 58.2931 61.935C58.2289 61.633 58.1327 61.3876 58.0043 61.1989C57.876 61.0064 57.7174 60.8648 57.5287 60.7742C57.3437 60.6798 57.1285 60.6326 56.8831 60.6326C56.6453 60.6326 56.432 60.6798 56.2433 60.7742C56.0583 60.8648 55.8997 61.0064 55.7676 61.1989C55.6393 61.3876 55.5411 61.633 55.4732 61.935C55.409 62.2332 55.3769 62.5919 55.3769 63.0109V64.4265C55.3769 64.838 55.4109 65.1928 55.4788 65.4911C55.5468 65.7855 55.6449 66.0271 55.7733 66.2159C55.9054 66.4008 56.0658 66.5386 56.2546 66.6292C56.4433 66.7198 56.6566 66.7651 56.8945 66.7651C57.1361 66.7651 57.3512 66.7198 57.54 66.6292C57.7287 66.5386 57.8854 66.4008 58.01 66.2159C58.1383 66.0271 58.2346 65.7855 58.2988 65.4911C58.3629 65.1928 58.395 64.838 58.395 64.4265Z" fill="#3D3538"/>
<path d="M44.5172 77.8203H43.0846L43.0959 76.6708H44.5172C44.9589 76.6708 45.3118 76.5897 45.5761 76.4273C45.8403 76.2612 46.031 76.0083 46.148 75.6686C46.265 75.3288 46.3235 74.8947 46.3235 74.3662V73.0242C46.3235 72.6165 46.2896 72.2692 46.2216 71.9823C46.1574 71.6916 46.0555 71.4556 45.9158 71.2744C45.7799 71.0895 45.6006 70.9536 45.3779 70.8667C45.1552 70.7761 44.8872 70.7308 44.5738 70.7308H43.0563V69.5757H44.5738C45.0457 69.5757 45.4723 69.6512 45.8536 69.8022C46.2348 69.9532 46.5614 70.1759 46.8332 70.4704C47.1087 70.761 47.3201 71.1216 47.4674 71.5519C47.6146 71.9823 47.6882 72.4768 47.6882 73.0355V74.3662C47.6882 74.9249 47.6146 75.4194 47.4674 75.8498C47.3201 76.2763 47.1087 76.6368 46.8332 76.9313C46.5576 77.222 46.2254 77.4428 45.8366 77.5938C45.4477 77.7448 45.008 77.8203 44.5172 77.8203ZM43.8717 69.5757V77.8203H42.4957V69.5757H43.8717Z" fill="#3D3538"/>
<path d="M59.5909 76.6708V77.8203H56.0122V76.6708H59.5909ZM56.3746 69.5757V77.8203H54.9986V69.5757H56.3746ZM59.1096 73.0072V74.1397H56.0122V73.0072H59.1096ZM59.5569 69.5757V70.7308H56.0122V69.5757H59.5569Z" fill="#3D3538"/>
<path fill-rule="evenodd" clip-rule="evenodd" d="M53.2626 31.7727C49.042 31.9182 43.9483 36.1388 43.6572 39.9227C43.6572 42.1057 46.859 47.1995 46.859 49.528C46.859 51.5655 45.4037 53.312 45.4037 53.312C48.3748 53.4838 52.5349 52.0021 52.826 48.9459C52.9715 44.8709 49.7843 41.6691 49.9153 39.195C49.7697 34.1013 53.4081 34.5379 53.2626 31.7727ZM45.9858 39.9227C46.1895 37.8852 47.1124 36.8674 49.042 35.2656C48.3001 36.675 47.9453 37.6767 48.0233 39.9227C48.1445 43.4155 51.0795 45.5986 51.0795 48.3638C50.8301 50.1102 48.8965 50.9834 48.8965 50.9834C50.4974 47.0539 45.782 41.9602 45.9858 39.9227Z" fill="#3D3538"/>
<path fill-rule="evenodd" clip-rule="evenodd" d="M58.0684 41.9602C55.9568 42.033 53.4083 44.1446 53.2627 46.0377C53.2627 47.1299 54.8646 49.6784 54.8646 50.8434C54.8646 51.8628 54.1365 52.7365 54.1365 52.7365C55.6229 52.8225 57.7043 52.0812 57.8499 50.5521C57.9227 48.5134 56.3281 46.9115 56.3937 45.6737C56.3208 43.1252 58.1412 43.3437 58.0684 41.9602ZM54.4277 46.0377C54.5296 45.0184 54.9914 44.5091 55.9568 43.7077C55.5856 44.4129 55.4081 44.9141 55.4471 46.0377C55.5077 47.7852 56.9762 48.8774 56.9762 50.2609C56.8513 51.1346 55.884 51.5715 55.884 51.5715C56.6849 49.6056 54.3258 47.0571 54.4277 46.0377Z" fill="#3D3538"/>
</svg>
