<svg width="87" height="85" viewBox="0 0 87 85" fill="none" xmlns="http://www.w3.org/2000/svg">
<path fill-rule="evenodd" clip-rule="evenodd" d="M70.3156 23.6835L67.5536 24.8673C37.961 -5.90911 -3.07405 32.7585 20.6001 61.1674C19.3478 55.6124 19.2545 52.5032 19.8109 46.963H67.9481V50.9087C81.758 50.9087 77.8123 67.4806 64.7916 67.4806C51.3763 78.1339 29.8567 77.1694 17.838 63.5348C-9.78166 23.6835 45.4578 -9.06555 70.3156 23.6835ZM65.1862 49.725H22.1783C22.1783 55.249 22.9675 62.2279 24.9403 64.324C31.2534 71.0317 46.6415 76.161 62.8188 65.1131C77.0232 64.324 77.0232 52.0924 65.1862 52.487V49.725Z" fill="#3D3538"/>
<path fill-rule="evenodd" clip-rule="evenodd" d="M65.1859 54.4596L63.6077 63.535C63.6077 63.535 66.4663 63.5637 67.9479 63.1404C73.4719 61.562 75.4447 53.2759 65.1859 54.4596ZM65.9751 61.562L67.1588 56.0382C67.1588 56.0382 69.9207 56.0381 70.3153 58.0108C70.3153 60.7727 65.9751 61.562 65.9751 61.562Z" fill="#3D3538"/>
<path d="M44.6686 49.7249H43.4849L43.4849 70.8993H44.6686V49.7249Z" fill="#3D3538"/>
<path d="M40.1288 56.3893H41.4261C41.4011 56.954 41.2867 57.4347 41.083 57.8314C40.8793 58.2246 40.5862 58.5248 40.2038 58.7321C39.825 58.9394 39.3621 59.043 38.8153 59.043C38.4007 59.043 38.0291 58.968 37.7002 58.8178C37.375 58.6677 37.098 58.4515 36.8693 58.1692C36.6406 57.8833 36.4654 57.5348 36.3439 57.1238C36.226 56.7128 36.167 56.2464 36.167 55.7246V54.3414C36.167 53.8196 36.2278 53.3532 36.3493 52.9422C36.4744 52.5312 36.6531 52.1828 36.8854 51.8968C37.1177 51.6109 37.4 51.3947 37.7324 51.2482C38.0684 51.098 38.4472 51.023 38.8689 51.023C39.4086 51.023 39.8625 51.1266 40.2306 51.3339C40.5987 51.5412 40.8829 51.845 41.083 52.2453C41.2832 52.6456 41.3993 53.1334 41.4315 53.7088H40.1341C40.1163 53.3193 40.0626 53.0083 39.9733 52.776C39.8875 52.5402 39.7553 52.3704 39.5766 52.2667C39.4015 52.1631 39.1656 52.1113 38.8689 52.1113C38.6223 52.1113 38.4097 52.1577 38.231 52.2507C38.0559 52.3436 37.9111 52.483 37.7967 52.6688C37.686 52.8511 37.602 53.0816 37.5448 53.3604C37.4912 53.6356 37.4644 53.959 37.4644 54.3307V55.7246C37.4644 56.082 37.4876 56.3983 37.5341 56.6735C37.5805 56.9487 37.6556 57.1828 37.7592 57.3757C37.8629 57.5652 38.0005 57.7099 38.172 57.81C38.3436 57.9065 38.558 57.9547 38.8153 57.9547C39.1227 57.9547 39.3675 57.9065 39.5498 57.81C39.7356 57.7135 39.8732 57.5509 39.9626 57.3221C40.0519 57.0934 40.1073 56.7825 40.1288 56.3893Z" fill="#3D3538"/>
<path d="M52.6671 54.395V55.7246C52.6671 56.275 52.6028 56.7574 52.4741 57.172C52.349 57.5866 52.1667 57.9333 51.9273 58.2121C51.6914 58.4873 51.4055 58.6945 51.0695 58.8339C50.7371 58.9733 50.3654 59.043 49.9544 59.043C49.547 59.043 49.1753 58.9733 48.8394 58.8339C48.507 58.6945 48.2193 58.4873 47.9762 58.2121C47.7368 57.9333 47.5509 57.5866 47.4187 57.172C47.29 56.7574 47.2257 56.275 47.2257 55.7246V54.395C47.2257 53.8375 47.29 53.3497 47.4187 52.9315C47.5474 52.5098 47.7314 52.1577 47.9709 51.8754C48.2139 51.593 48.5016 51.3804 48.834 51.2374C49.1699 51.0945 49.5399 51.023 49.9437 51.023C50.3547 51.023 50.7264 51.0945 51.0588 51.2374C51.3948 51.3804 51.6825 51.593 51.9219 51.8754C52.1614 52.1577 52.3454 52.5098 52.4741 52.9315C52.6028 53.3497 52.6671 53.8375 52.6671 54.395ZM51.3751 55.7246V54.3843C51.3751 53.9876 51.3429 53.6481 51.2786 53.3657C51.2178 53.0798 51.1267 52.8475 51.0052 52.6688C50.8837 52.4865 50.7336 52.3525 50.5549 52.2667C50.3797 52.1774 50.176 52.1327 49.9437 52.1327C49.7186 52.1327 49.5166 52.1774 49.3379 52.2667C49.1628 52.3525 49.0127 52.4865 48.8876 52.6688C48.7661 52.8475 48.6732 53.0798 48.6088 53.3657C48.5481 53.6481 48.5177 53.9876 48.5177 54.3843V55.7246C48.5177 56.1141 48.5499 56.4501 48.6142 56.7324C48.6785 57.0112 48.7715 57.2399 48.893 57.4186C49.0181 57.5938 49.1699 57.7242 49.3486 57.81C49.5273 57.8958 49.7293 57.9387 49.9544 57.9387C50.1832 57.9387 50.3869 57.8958 50.5656 57.81C50.7443 57.7242 50.8926 57.5938 51.0106 57.4186C51.1321 57.2399 51.2232 57.0112 51.284 56.7324C51.3447 56.4501 51.3751 56.1141 51.3751 55.7246Z" fill="#3D3538"/>
<path d="M38.2363 68.4054H36.88L36.8907 67.3171H38.2363C38.6545 67.3171 38.9887 67.2403 39.2388 67.0866C39.489 66.9293 39.6695 66.6899 39.7803 66.3682C39.8911 66.0466 39.9465 65.6356 39.9465 65.1352V63.8647C39.9465 63.4787 39.9143 63.1499 39.85 62.8782C39.7892 62.603 39.6927 62.3797 39.5605 62.2081C39.4318 62.033 39.2621 61.9043 39.0512 61.8221C38.8403 61.7363 38.5866 61.6935 38.29 61.6935H36.8532V60.5998H38.29C38.7367 60.5998 39.1406 60.6713 39.5015 60.8143C39.8625 60.9572 40.1717 61.1681 40.429 61.4469C40.6899 61.722 40.89 62.0634 41.0294 62.4708C41.1688 62.8782 41.2385 63.3464 41.2385 63.8754V65.1352C41.2385 65.6642 41.1688 66.1323 41.0294 66.5398C40.89 66.9436 40.6899 67.285 40.429 67.5637C40.1681 67.8389 39.8536 68.048 39.4854 68.191C39.1173 68.3339 38.701 68.4054 38.2363 68.4054ZM37.6252 60.5998V68.4054H36.3225V60.5998H37.6252Z" fill="#3D3538"/>
<path d="M52.5073 67.3171V68.4054H49.1191V67.3171H52.5073ZM49.4622 60.5998V68.4054H48.1595V60.5998H49.4622ZM52.0516 63.8486V64.9208H49.1191V63.8486H52.0516ZM52.4751 60.5998V61.6935H49.1191V60.5998H52.4751Z" fill="#3D3538"/>
<path fill-rule="evenodd" clip-rule="evenodd" d="M46.5161 25.2241C42.5203 25.3619 37.6978 29.3577 37.4222 32.9401C37.4222 35.0069 40.4535 39.8294 40.4535 42.0339C40.4535 43.9629 39.0757 45.6164 39.0757 45.6164C41.8886 45.7791 45.8272 44.3763 46.1027 41.4828C46.2405 37.6248 43.223 34.5935 43.347 32.2512C43.2092 27.4287 46.6539 27.842 46.5161 25.2241ZM39.6268 32.9401C39.8197 31.0111 40.6934 30.0475 42.5203 28.531C41.8179 29.8654 41.482 30.8138 41.5558 32.9401C41.6706 36.247 44.4493 38.3137 44.4493 40.9317C44.2131 42.5851 42.3825 43.4118 42.3825 43.4118C43.8982 39.6916 39.4339 34.8691 39.6268 32.9401Z" fill="#3D3538"/>
<path fill-rule="evenodd" clip-rule="evenodd" d="M51.0657 34.8691C49.0666 34.9381 46.6539 36.9372 46.516 38.7295C46.516 39.7636 48.0326 42.1763 48.0326 43.2793C48.0326 44.2444 47.3432 45.0716 47.3432 45.0716C48.7506 45.153 50.7211 44.4512 50.8589 43.0035C50.9279 41.0733 49.4182 39.5568 49.4802 38.3849C49.4113 35.9721 51.1347 36.1789 51.0657 34.8691ZM47.619 38.7295C47.7155 37.7644 48.1526 37.2823 49.0666 36.5236C48.7152 37.1912 48.5471 37.6657 48.5841 38.7295C48.6415 40.384 50.0317 41.418 50.0317 42.7278C49.9135 43.555 48.9977 43.9686 48.9977 43.9686C49.756 42.1074 47.5225 39.6946 47.619 38.7295Z" fill="#3D3538"/>
</svg>
