<svg width="20" height="21" viewBox="0 0 20 21" fill="none" xmlns="http://www.w3.org/2000/svg">
<path fill-rule="evenodd" clip-rule="evenodd" d="M5.13157 3.28264C4.74105 2.89212 4.10789 2.89211 3.71736 3.28264C3.32684 3.67316 3.32684 4.30633 3.71736 4.69685L9.02051 10L3.71736 15.3031C3.32684 15.6937 3.32684 16.3268 3.71736 16.7174C4.10789 17.1079 4.74105 17.1079 5.13157 16.7174L10.4347 11.4142L15.7382 16.7177C16.1287 17.1082 16.7619 17.1082 17.1524 16.7177C17.5429 16.3271 17.5429 15.694 17.1524 15.3035L11.8489 10L17.1524 4.69655C17.5429 4.30602 17.5429 3.67286 17.1524 3.28233C16.7619 2.89181 16.1287 2.89181 15.7382 3.28233L10.4347 8.58579L5.13157 3.28264Z" fill="black"/>
</svg>
