<svg width="100" height="100" viewBox="0 0 100 100" fill="none" xmlns="http://www.w3.org/2000/svg">
<path fill-rule="evenodd" clip-rule="evenodd" d="M90.5154 20.79L86.3504 22.6275C41.7255 -25.1487 -20.1544 34.8777 15.5456 78.9788C13.6572 70.3552 13.5166 65.5286 14.3556 56.9283H86.9454V63.0534C107.77 63.0534 101.82 88.779 82.1854 88.779C61.9555 105.317 29.5044 103.82 11.3805 82.6537C-30.2693 20.7899 53.0305 -30.0487 90.5154 20.79ZM82.7804 61.2159H17.9256C17.9256 69.7911 19.1156 80.6249 22.0906 83.8789C31.6106 94.2917 54.8155 102.254 79.2104 85.104C100.63 83.8789 100.63 64.891 82.7804 65.5035V61.2159Z" fill="#3D3538"/>
<path fill-rule="evenodd" clip-rule="evenodd" d="M82.7804 68.5655L80.4004 82.6538C80.4004 82.6538 84.7112 82.6985 86.9454 82.0413C95.2754 79.591 98.2503 66.728 82.7804 68.5655ZM83.9704 79.591L85.7554 71.016C85.7554 71.016 89.9204 71.0159 90.5154 74.0782C90.5154 78.3658 83.9704 79.591 83.9704 79.591Z" fill="#3D3538"/>
<path d="M51.8397 61.2157H50.0547L50.0547 94.0863H51.8397V61.2157Z" fill="#3D3538"/>
<path d="M44.6576 70.3403H46.5173C46.4814 71.1498 46.3175 71.8389 46.0255 72.4075C45.7334 72.9711 45.3133 73.4014 44.7652 73.6986C44.2221 73.9957 43.5586 74.1443 42.7748 74.1443C42.1805 74.1443 41.6477 74.0367 41.1764 73.8215C40.7102 73.6064 40.3131 73.2964 39.9852 72.8917C39.6573 72.4818 39.4063 71.9823 39.2321 71.3931C39.0631 70.804 38.9785 70.1354 38.9785 69.3874V67.4048C38.9785 66.6568 39.0656 65.9882 39.2398 65.399C39.4191 64.8099 39.6753 64.3103 40.0083 63.9005C40.3413 63.4906 40.746 63.1807 41.2225 62.9706C41.7041 62.7555 42.2471 62.6479 42.8516 62.6479C43.6252 62.6479 44.2759 62.7964 44.8036 63.0936C45.3313 63.3907 45.7386 63.8262 46.0255 64.4C46.3124 64.9738 46.4789 65.6731 46.525 66.4979H44.6653C44.6396 65.9395 44.5628 65.4938 44.4347 65.1608C44.3118 64.8227 44.1222 64.5793 43.866 64.4307C43.615 64.2822 43.2769 64.2079 42.8516 64.2079C42.4981 64.2079 42.1933 64.2745 41.9372 64.4077C41.6861 64.5409 41.4786 64.7407 41.3147 65.0071C41.1559 65.2684 41.0355 65.5988 40.9535 65.9984C40.8767 66.3929 40.8382 66.8566 40.8382 67.3894V69.3874C40.8382 69.8997 40.8715 70.3531 40.9381 70.7476C41.0047 71.1421 41.1123 71.4777 41.2609 71.7543C41.4095 72.0259 41.6067 72.2333 41.8526 72.3768C42.0985 72.5151 42.4059 72.5843 42.7748 72.5843C43.2154 72.5843 43.5663 72.5151 43.8276 72.3768C44.094 72.2385 44.2913 72.0054 44.4193 71.6775C44.5474 71.3496 44.6268 70.9039 44.6576 70.3403Z" fill="#3D3538"/>
<path d="M63.4521 67.4816V69.3874C63.4521 70.1764 63.3599 70.868 63.1755 71.4623C62.9962 72.0566 62.7349 72.5535 62.3916 72.9532C62.0535 73.3476 61.6437 73.6448 61.1621 73.8446C60.6856 74.0444 60.1528 74.1443 59.5636 74.1443C58.9796 74.1443 58.4468 74.0444 57.9652 73.8446C57.4888 73.6448 57.0763 73.3476 56.728 72.9532C56.3847 72.5535 56.1183 72.0566 55.9287 71.4623C55.7443 70.868 55.6521 70.1764 55.6521 69.3874V67.4816C55.6521 66.6824 55.7443 65.9831 55.9287 65.3837C56.1132 64.7791 56.377 64.2745 56.7203 63.8698C57.0687 63.465 57.4811 63.1602 57.9575 62.9553C58.4391 62.7503 58.9694 62.6479 59.5483 62.6479C60.1374 62.6479 60.6702 62.7503 61.1467 62.9553C61.6283 63.1602 62.0407 63.465 62.384 63.8698C62.7272 64.2745 62.9911 64.7791 63.1755 65.3837C63.3599 65.9831 63.4521 66.6824 63.4521 67.4816ZM61.6001 69.3874V67.4662C61.6001 66.8976 61.554 66.4109 61.4618 66.0061C61.3747 65.5963 61.244 65.2633 61.0699 65.0071C60.8957 64.7458 60.6805 64.5537 60.4243 64.4307C60.1733 64.3027 59.8813 64.2386 59.5483 64.2386C59.2255 64.2386 58.9361 64.3027 58.6799 64.4307C58.4289 64.5537 58.2137 64.7458 58.0344 65.0071C57.8602 65.2633 57.727 65.5963 57.6348 66.0061C57.5477 66.4109 57.5041 66.8976 57.5041 67.4662V69.3874C57.5041 69.9458 57.5502 70.4274 57.6424 70.8322C57.7347 71.2318 57.8679 71.5597 58.0421 71.8158C58.2214 72.0668 58.4391 72.2538 58.6953 72.3768C58.9514 72.4998 59.2409 72.5612 59.5636 72.5612C59.8915 72.5612 60.1835 72.4998 60.4397 72.3768C60.6959 72.2538 60.9085 72.0668 61.0775 71.8158C61.2517 71.5597 61.3824 71.2318 61.4695 70.8322C61.5566 70.4274 61.6001 69.9458 61.6001 69.3874Z" fill="#3D3538"/>
<path d="M41.9448 88.6912H40.0006L40.016 87.1312H41.9448C42.5443 87.1312 43.0233 87.021 43.3819 86.8007C43.7405 86.5753 43.9992 86.232 44.1581 85.7709C44.3169 85.3099 44.3963 84.7207 44.3963 84.0035V82.1822C44.3963 81.6289 44.3502 81.1575 44.258 80.7682C44.1709 80.3737 44.0325 80.0535 43.843 79.8076C43.6585 79.5565 43.4152 79.3721 43.1129 79.2543C42.8107 79.1313 42.4469 79.0698 42.0217 79.0698H39.9622V77.5021H42.0217C42.6621 77.5021 43.241 77.6046 43.7584 77.8095C44.2759 78.0145 44.719 78.3167 45.0879 78.7163C45.4619 79.1108 45.7488 79.6001 45.9486 80.1841C46.1484 80.7682 46.2483 81.4393 46.2483 82.1975V84.0035C46.2483 84.7617 46.1484 85.4328 45.9486 86.0169C45.7488 86.5958 45.4619 87.085 45.0879 87.4847C44.7139 87.8791 44.2631 88.1788 43.7354 88.3838C43.2077 88.5887 42.6109 88.6912 41.9448 88.6912ZM41.0688 77.5021V88.6912H39.2014V77.5021H41.0688Z" fill="#3D3538"/>
<path d="M63.2833 87.1312V88.6912H58.4266V87.1312H63.2833ZM58.9184 77.5021V88.6912H57.051V77.5021H58.9184ZM62.6301 82.1591V83.6961H58.4266V82.1591H62.6301ZM63.2372 77.5021V79.0698H58.4266V77.5021H63.2372Z" fill="#3D3538"/>
<path fill-rule="evenodd" clip-rule="evenodd" d="M54.6254 23.1814C48.5999 23.3953 41.3277 29.5982 40.9121 35.1595C40.9121 38.3679 45.4832 45.8541 45.4832 49.2764C45.4832 52.271 43.4054 54.8377 43.4054 54.8377C47.6473 55.0903 53.5865 52.9126 54.0021 48.4209C54.2099 42.4318 49.6595 37.7262 49.8465 34.09C49.6388 26.6037 54.8332 27.2454 54.6254 23.1814ZM44.2365 35.1595C44.5274 32.1649 45.845 30.669 48.5999 28.3148C47.5406 30.3863 47.0341 31.8586 47.1454 35.1595C47.3185 40.2929 51.5088 43.5013 51.5088 47.5653C51.1526 50.132 48.3921 51.4154 48.3921 51.4154C50.6776 45.6402 43.9457 38.154 44.2365 35.1595Z" fill="#3D3538"/>
<path fill-rule="evenodd" clip-rule="evenodd" d="M61.4859 38.1539C58.4713 38.2609 54.8329 41.3643 54.625 44.1467C54.625 45.7519 56.912 49.4974 56.912 51.2096C56.912 52.7078 55.8724 53.9919 55.8724 53.9919C57.9947 54.1183 60.9662 53.0288 61.1741 50.7815C61.278 47.7851 59.0014 45.4308 59.095 43.6116C58.991 39.8661 61.5899 40.1872 61.4859 38.1539ZM56.2883 44.1467C56.4338 42.6485 57.093 41.9001 58.4713 40.7223C57.9413 41.7586 57.6879 42.4952 57.7436 44.1467C57.8302 46.715 59.9266 48.3202 59.9266 50.3535C59.7484 51.6376 58.3673 52.2797 58.3673 52.2797C59.5108 49.3903 56.1427 45.6449 56.2883 44.1467Z" fill="#3D3538"/>
</svg>
